<!DOCTYPE svg PUBLIC "-//W3C//DTD SVG 1.1//EN" "http://www.w3.org/Graphics/SVG/1.1/DTD/svg11.dtd">
<!-- Uploaded to: SVG Repo, www.svgrepo.com, Transformed by: SVG Repo Mixer Tools -->
<svg fill="#ffffff" height="64px" width="64px" version="1.1" id="Icons" xmlns="http://www.w3.org/2000/svg" xmlns:xlink="http://www.w3.org/1999/xlink" viewBox="0 0 32.00 32.00" xml:space="preserve" stroke="#ffffff" stroke-width="0.00032">
<g id="SVGRepo_bgCarrier" stroke-width="0"/>
<g id="SVGRepo_tracerCarrier" stroke-linecap="round" stroke-linejoin="round"/>
<g id="SVGRepo_iconCarrier"> <g> <path d="M24,16c-4.4,0-8,3.6-8,8s3.6,8,8,8s8-3.6,8-8S28.4,16,24,16z M27,25h-2v2c0,0.6-0.4,1-1,1s-1-0.4-1-1v-2h-2 c-0.6,0-1-0.4-1-1s0.4-1,1-1h2v-2c0-0.6,0.4-1,1-1s1,0.4,1,1v2h2c0.6,0,1,0.4,1,1S27.6,25,27,25z"/> </g> <path d="M14.2,26H12v-3h2.1c0.5-5,4.8-9,9.9-9c3.3,0,6.2,1.6,8,4V5c0-0.6-0.4-1-1-1H1C0.4,4,0,4.4,0,5v22c0,0.6,0.4,1,1,1h13.8 C14.6,27.4,14.3,26.7,14.2,26z M27,6h3v3h-3V6z M22,6h3v3h-3V6z M17,6h3v3h-3V6z M12,6h3v3h-3V6z M5,26H2v-3h3V26z M5,9H2V6h3V9z M10,26H7v-3h3V26z M10,9H7V6h3V9z"/> </g>
</svg>